<?xml version="1.0" encoding="UTF-8"?>
<svg width="24px" height="30px" viewBox="0 0 24 30" version="1.1" xmlns="http://www.w3.org/2000/svg" xmlns:xlink="http://www.w3.org/1999/xlink">
    <!-- Generator: Sketch 49 (51002) - http://www.bohemiancoding.com/sketch -->
    <title>Group Copy 2</title>
    <desc>Created with Sketch.</desc>
    <defs></defs>
    <g id="点卡返佣-二期" stroke="none" stroke-width="1" fill="none" fill-rule="evenodd">
        <g id="邀请返佣-二期" transform="translate(-420.000000, -987.000000)">
            <g id="榜单" transform="translate(360.000000, 730.000000)">
                <g id="Group-Copy-2" transform="translate(60.000000, 257.000000)">
                    <path d="M13,7 L16,10 L20,10 L20,14 L24,18 L20,22 L20,26 L16,26 L12,30 L8,26 L4,26 L4,22 L1.77635684e-15,18 L4,14 L4,10 L8,10 L11,7 L11,5 L13,5 L13,7 Z" id="Combined-Shape" fill="#F3C679"></path>
                    <path d="M9,0 L15,0 L15,5 L9,5 L9,0 Z M16,0 L18,0 L18,5 L16,5 L16,0 Z M6,0 L8,0 L8,5 L6,5 L6,0 Z M12,24 C8.6862915,24 6,21.3137085 6,18 C6,14.6862915 8.6862915,12 12,12 C15.3137085,12 18,14.6862915 18,18 C18,21.3137085 15.3137085,24 12,24 Z M12,21.2967807 L14.472136,22 L14.6000001,19.3105573 L16,17.0557281 L13.6068885,16.0967804 L12,14 L10.3931115,16.0967804 L8,17.0557281 L9.39999986,19.3105573 L9.52786405,22 L12,21.2967807 Z" id="Combined-Shape" fill="#C0925C"></path>
                </g>
            </g>
        </g>
    </g>
</svg>