<?xml version="1.0" encoding="UTF-8"?>
<svg width="24px" height="24px" viewBox="0 0 24 24" version="1.1" xmlns="http://www.w3.org/2000/svg" xmlns:xlink="http://www.w3.org/1999/xlink">
    <!-- Generator: Sketch 47 (45396) - http://www.bohemiancoding.com/sketch -->
    <title>认证成功</title>
    <desc>Created with Sketch.</desc>
    <defs/>
    <g id="登录注册" stroke="none" stroke-width="1" fill="none" fill-rule="evenodd">
        <g id="交互状态" transform="translate(-573.000000, -2421.000000)">
            <g id="认证成功" transform="translate(573.000000, 2421.000000)">
                <circle id="Oval-4" fill="#3CBC6C" cx="12" cy="12" r="12"/>
                <path d="M13.959139,14.7318122 L9.91869888,14.7318122 L9.91869888,14.7318122 C9.36641413,14.7318122 8.91869888,15.1795274 8.91869888,15.7318122 C8.91869888,16.2840969 9.36641413,16.7318122 9.91869888,16.7318122 L14.9186989,16.7318122 C14.9254548,16.7318122 14.932195,16.7317452 14.9389189,16.7316118 C14.9456429,16.7317452 14.9523831,16.7318122 14.959139,16.7318122 C15.5114237,16.7318122 15.959139,16.2840969 15.959139,15.7318122 L15.959139,15.7318122 L15.959139,5.73181216 C15.959139,5.17952741 15.5114237,4.73181216 14.959139,4.73181216 C14.4068542,4.73181216 13.959139,5.17952741 13.959139,5.73181216 L13.959139,5.73181216 L13.959139,14.7318122 Z" id="Combined-Shape" fill="#FFFFFF" transform="translate(12.438919, 10.731812) rotate(45.000000) translate(-12.438919, -10.731812) "/>
            </g>
        </g>
    </g>
</svg>