<?xml version="1.0" encoding="UTF-8"?>
<svg width="24px" height="24px" viewBox="0 0 24 24" version="1.1" xmlns="http://www.w3.org/2000/svg" xmlns:xlink="http://www.w3.org/1999/xlink">
    <!-- Generator: Sketch 47 (45396) - http://www.bohemiancoding.com/sketch -->
    <title>审核中</title>
    <desc>Created with Sketch.</desc>
    <defs/>
    <g id="登录注册" stroke="none" stroke-width="1" fill="none" fill-rule="evenodd">
        <g id="交互状态" transform="translate(-653.000000, -2421.000000)">
            <g id="审核中" transform="translate(653.000000, 2421.000000)">
                <path d="M12,24 C5.31428571,24 0,18.6857143 0,12 C0,5.31428571 5.31428571,0 12,0 C18.6857143,0 24,5.31428571 24,12 C24,18.6857143 18.6857143,24 12,24 Z" id="Combined-Shape" fill="#7A98F7" fill-rule="nonzero"/>
                <path d="M14.2,12.1076923 C15.8,11.2461538 16.8,9.52307692 16.8,7.58461538 L15.4,7.58461538 C15.4,9.52307692 14,11.0307692 12.2,11.0307692 C10.4,11.0307692 8.8,9.52307692 8.8,7.58461538 L7.4,7.58461538 C7.4,9.52307692 8.4,11.2461538 10,12.1076923 C8.4,12.9692308 7.4,14.6923077 7.4,16.6307692 L8.8,16.6307692 C8.8,14.6923077 10.2,13.1846154 12,13.1846154 C13.8,13.1846154 15.2,14.6923077 15.2,16.6307692 L16.6,16.6307692 C16.8,14.6923077 15.6,12.9692308 14.2,12.1076923 L14.2,12.1076923 Z" id="Combined-Shape" fill="#FFFFFF"/>
                <path d="M6,5.86153846 C6,6.29230769 6.4,6.50769231 6.6,6.50769231 L17.4,6.50769231 C17.8,6.50769231 18,6.07692308 18,5.86153846 C18,5.43076923 17.6,5 17.4,5 L6.6,5 C6.4,5 6,5.43076923 6,5.86153846 Z" id="Combined-Shape" fill="#FFFFFF"/>
                <path d="M6,18.3538462 C6,18.7846154 6.4,19 6.6,19 L17.4,19 C17.8,19 18,18.5692308 18,18.3538462 C18,17.9230769 17.6,17.4923077 17.4,17.4923077 L6.6,17.4923077 C6.4,17.7076923 6,17.9230769 6,18.3538462 Z" id="Combined-Shape" fill="#FFFFFF"/>
                <polygon id="Combined-Shape" fill="#FFFFFF" points="7.4 6.50769231 7.4 7.58461538 8.8 7.58461538 8.8 6.50769231"/>
                <polygon id="Combined-Shape" fill="#FFFFFF" points="15.4 6.50769231 15.4 7.58461538 16.8 7.58461538 16.8 6.50769231"/>
                <polygon id="Combined-Shape" fill="#FFFFFF" points="7.4 17.7076923 8.8 17.7076923 8.8 16.6307692 7.4 16.6307692"/>
                <polygon id="Combined-Shape" fill="#FFFFFF" points="15.4 17.7076923 16.8 17.7076923 16.8 16.6307692 15.4 16.6307692"/>
            </g>
        </g>
    </g>
</svg>